<?xml version="1.0" encoding="UTF-8"?>
<svg id="Calque_1" xmlns="http://www.w3.org/2000/svg" version="1.1" xmlns:xlink="http://www.w3.org/1999/xlink" viewBox="0 0 726.54 225.43">
  <!-- Generator: Adobe Illustrator 29.8.3, SVG Export Plug-In . SVG Version: 2.1.1 Build 3)  -->
  <defs>
    <style>
      .st0 {
        fill: url(#Dégradé_sans_nom_141);
      }

      .st1 {
        fill: url(#Dégradé_sans_nom_14);
      }

      .st2 {
        fill: url(#Dégradé_sans_nom_142);
      }

      .st3 {
        fill: url(#Dégradé_sans_nom_1411);
      }

      .st4 {
        fill: url(#Dégradé_sans_nom_1412);
      }

      .st5 {
        fill: url(#Dégradé_sans_nom_195);
      }

      .st6 {
        fill: url(#Dégradé_sans_nom_1952);
      }

      .st7 {
        fill: url(#Dégradé_sans_nom_143);
      }

      .st8 {
        fill: url(#Dégradé_sans_nom_1951);
      }

      .st9 {
        fill: #f7f7f7;
      }
    </style>
    <radialGradient id="Dégradé_sans_nom_141" data-name="Dégradé sans nom 141" cx="97.6" cy="144.54" fx="97.6" fy="144.54" r="79.7" gradientUnits="userSpaceOnUse">
      <stop offset=".06" stop-color="#fff"/>
      <stop offset="1" stop-color="#aeaeae"/>
    </radialGradient>
    <linearGradient id="Dégradé_sans_nom_195" data-name="Dégradé sans nom 195" x1="0" y1="184.99" x2="97.6" y2="184.99" gradientUnits="userSpaceOnUse">
      <stop offset="0" stop-color="#757575"/>
      <stop offset="1" stop-color="#101010"/>
    </linearGradient>
    <linearGradient id="Dégradé_sans_nom_14" data-name="Dégradé sans nom 14" x1="97.6" y1="185.01" x2="195.21" y2="185.01" gradientUnits="userSpaceOnUse">
      <stop offset="0" stop-color="#ddd"/>
      <stop offset=".09" stop-color="#c3c3c3"/>
      <stop offset="1" stop-color="#454545"/>
    </linearGradient>
    <radialGradient id="Dégradé_sans_nom_1411" data-name="Dégradé sans nom 141" cy="100.44" fy="100.44" r="79.7" xlink:href="#Dégradé_sans_nom_141"/>
    <linearGradient id="Dégradé_sans_nom_1951" data-name="Dégradé sans nom 195" y1="140.88" y2="140.88" xlink:href="#Dégradé_sans_nom_195"/>
    <linearGradient id="Dégradé_sans_nom_142" data-name="Dégradé sans nom 14" y1="140.91" y2="140.91" xlink:href="#Dégradé_sans_nom_14"/>
    <radialGradient id="Dégradé_sans_nom_1412" data-name="Dégradé sans nom 141" cx="155.15" cy="50.03" fx="155.15" fy="50.03" r="125.64" xlink:href="#Dégradé_sans_nom_141"/>
    <linearGradient id="Dégradé_sans_nom_1952" data-name="Dégradé sans nom 195" y1="96.8" y2="96.8" xlink:href="#Dégradé_sans_nom_195"/>
    <linearGradient id="Dégradé_sans_nom_143" data-name="Dégradé sans nom 14" y1="96.83" y2="96.83" xlink:href="#Dégradé_sans_nom_14"/>
  </defs>
  <g>
    <polygon class="st0" points="195.21 144.59 177.29 154.9 97.6 200.9 17.92 154.9 0 144.54 97.6 88.18 195.21 144.59"/>
    <polygon class="st5" points="97.6 200.9 97.6 225.43 0 169.07 0 144.54 17.92 154.9 97.6 200.9"/>
    <polygon class="st1" points="195.21 144.59 195.21 169.12 97.6 225.43 97.6 200.9 177.29 154.9 195.21 144.59"/>
    <polygon class="st3" points="195.21 100.49 177.29 110.8 97.6 156.8 17.92 110.8 0 100.44 97.6 44.08 195.21 100.49"/>
    <polygon class="st8" points="97.6 156.8 97.6 181.33 0 124.97 0 100.44 17.92 110.8 97.6 156.8"/>
    <polygon class="st2" points="195.21 100.49 195.21 125.02 97.6 181.33 97.6 156.8 177.29 110.8 195.21 100.49"/>
    <polygon class="st4" points="195.21 56.41 177.29 66.72 97.6 112.72 17.92 66.72 0 56.36 97.6 0 195.21 56.41"/>
    <polygon class="st6" points="97.6 112.72 97.6 137.25 0 80.89 0 56.36 17.92 66.72 97.6 112.72"/>
    <polygon class="st7" points="195.21 56.41 195.21 80.94 97.6 137.25 97.6 112.72 177.29 66.72 195.21 56.41"/>
  </g>
  <g>
    <path class="st9" d="M318.48,90.82c-2.51-4.68-6.22-8.33-11.13-10.95-4.91-2.62-10.5-3.94-16.77-3.94-7.76,0-14.49,1.94-20.2,5.82-5.71,3.88-10.1,9.39-13.18,16.52-3.08,7.13-4.62,15.55-4.62,25.25s1.51,18.12,4.54,25.25c3.02,7.13,7.42,12.64,13.18,16.52,5.76,3.88,12.52,5.82,20.28,5.82,6.39,0,12.12-1.4,17.2-4.19,5.08-2.79,8.87-6.65,11.38-11.55l.51,13.69h16.94V47.52h-18.14v43.3ZM315.74,140.62c-1.83,4.79-4.45,8.45-7.87,10.95-3.42,2.51-7.59,3.76-12.49,3.76-7.3,0-13.12-2.85-17.46-8.56-4.34-5.7-6.5-13.46-6.5-23.28s2.17-17.71,6.5-23.36c4.34-5.65,10.15-8.47,17.46-8.47,4.9,0,9.07,1.23,12.49,3.68,3.42,2.45,6.05,6.05,7.87,10.78,1.82,4.74,2.74,10.53,2.74,17.37s-.91,12.32-2.74,17.12Z"/>
    <path class="st9" d="M430.59,153.37c-.74-.86-1.11-2.37-1.11-4.54v-35.43c0-11.87-3.23-21.08-9.67-27.64-6.45-6.56-15.83-9.84-28.15-9.84-10.84,0-19.66,2.63-26.44,7.87-6.79,5.25-11.04,12.44-12.75,21.56l18.66,1.2c1.25-5.02,3.54-8.81,6.85-11.38,3.31-2.57,7.87-3.85,13.69-3.85,6.5,0,11.41,1.74,14.72,5.22,3.31,3.48,4.96,8.76,4.96,15.83l-31.32,5.99c-9.93,1.94-17.26,5.11-21.99,9.5-4.74,4.39-7.1,10.53-7.1,18.4s2.82,13.98,8.47,18.31c5.65,4.34,13.21,6.5,22.68,6.5,5.36,0,10.35-.89,14.98-2.65,4.62-1.77,8.44-4.19,11.47-7.27,1.84-1.88,3.29-3.93,4.34-6.14.33,2.5.9,4.63,1.73,6.4,1.37,2.91,3.45,4.99,6.25,6.25,2.79,1.26,6.13,1.88,10.01,1.88,1.37,0,2.68-.06,3.94-.17,1.25-.12,2.17-.23,2.74-.34v-14.38h-3.25c-1.71,0-2.94-.43-3.68-1.28ZM411.33,131.89c0,4.79-1.09,9.07-3.25,12.84-2.17,3.77-5.19,6.7-9.07,8.81-3.88,2.11-8.56,3.17-14.03,3.17-4.79,0-8.53-1.05-11.21-3.17-2.68-2.11-4.02-5.11-4.02-8.99,0-3.42,1.11-6.25,3.34-8.47,2.23-2.23,6.08-3.85,11.55-4.88l26.7-5.13v5.82Z"/>
    <path class="st9" d="M471.53,56.59h-18.14v21.39h-13.86v14.89h13.86v51.52c0,8.45,2.05,14.66,6.16,18.66,4.11,4,10.5,5.99,19.17,5.99h16.94v-14.89h-13.01c-3.77,0-6.56-.8-8.39-2.4-1.83-1.6-2.74-4.51-2.74-8.73v-50.15h24.13v-14.89h-24.13v-21.39Z"/>
    <path class="st9" d="M563.52,131.38c0,7.76-1.86,13.78-5.56,18.06-3.71,4.28-8.87,6.42-15.49,6.42-5.82,0-10.16-1.94-13.01-5.82-2.85-3.88-4.28-9.93-4.28-18.14v-53.91h-18.14v58.53c0,10.84,2.71,19.31,8.13,25.42,5.42,6.11,12.69,9.16,21.82,9.16,8.1,0,14.72-2.14,19.85-6.42,3.28-2.73,5.82-6.22,7.66-10.46l.21,14.83h16.94v-91.05h-18.14v53.4Z"/>
    <path class="st9" d="M723.03,91.67c-2.34-5.14-5.76-9.04-10.27-11.72-4.51-2.68-9.96-4.02-16.35-4.02-4.91,0-9.3.97-13.18,2.91-3.88,1.94-7.05,4.71-9.5,8.3-1.51,2.22-2.75,4.77-3.72,7.66-1.64-4.96-4.24-9.06-7.83-12.28-4.91-4.39-11.24-6.59-19-6.59-4.45,0-8.56.97-12.32,2.91-3.77,1.94-6.93,4.68-9.5,8.21-1.4,1.93-2.56,4.08-3.5,6.44l-.35-15.51h-16.6v91.05h18.14v-53.4c0-5.02.8-9.38,2.4-13.09,1.6-3.71,3.79-6.53,6.59-8.47,2.79-1.94,6.13-2.91,10.01-2.91,6.16,0,10.53,2.14,13.09,6.42,2.57,4.28,3.85,10.3,3.85,18.06v53.4h17.29v-53.4c0-5.13.77-9.53,2.31-13.18,1.54-3.65,3.74-6.44,6.59-8.39,2.85-1.94,6.16-2.91,9.93-2.91,5.82,0,10.15,2,13.01,5.99,2.85,4,4.28,9.93,4.28,17.8v54.08h18.14v-58.53c0-7.42-1.17-13.69-3.51-18.83Z"/>
  </g>
</svg>