<?xml version="1.0" encoding="UTF-8"?>
<svg id="Calque_1" xmlns="http://www.w3.org/2000/svg" version="1.1" xmlns:xlink="http://www.w3.org/1999/xlink" viewBox="0 0 195.21 225.43">
  <!-- Generator: Adobe Illustrator 29.8.3, SVG Export Plug-In . SVG Version: 2.1.1 Build 3)  -->
  <defs>
    <style>
      .st0 {
        fill: url(#Dégradé_sans_nom_141);
      }

      .st1 {
        fill: url(#Dégradé_sans_nom_14);
      }

      .st2 {
        fill: url(#Dégradé_sans_nom_142);
      }

      .st3 {
        fill: url(#Dégradé_sans_nom_1411);
      }

      .st4 {
        fill: url(#Dégradé_sans_nom_1412);
      }

      .st5 {
        fill: url(#Dégradé_sans_nom_195);
      }

      .st6 {
        fill: url(#Dégradé_sans_nom_1952);
      }

      .st7 {
        fill: url(#Dégradé_sans_nom_143);
      }

      .st8 {
        fill: url(#Dégradé_sans_nom_1951);
      }
    </style>
    <radialGradient id="Dégradé_sans_nom_141" data-name="Dégradé sans nom 141" cx="97.6" cy="144.54" fx="97.6" fy="144.54" r="79.7" gradientUnits="userSpaceOnUse">
      <stop offset=".06" stop-color="#fff"/>
      <stop offset="1" stop-color="#aeaeae"/>
    </radialGradient>
    <linearGradient id="Dégradé_sans_nom_195" data-name="Dégradé sans nom 195" x1="0" y1="184.99" x2="97.6" y2="184.99" gradientUnits="userSpaceOnUse">
      <stop offset="0" stop-color="#757575"/>
      <stop offset="1" stop-color="#101010"/>
    </linearGradient>
    <linearGradient id="Dégradé_sans_nom_14" data-name="Dégradé sans nom 14" x1="97.6" y1="185.01" x2="195.21" y2="185.01" gradientUnits="userSpaceOnUse">
      <stop offset="0" stop-color="#ddd"/>
      <stop offset=".09" stop-color="#c3c3c3"/>
      <stop offset="1" stop-color="#454545"/>
    </linearGradient>
    <radialGradient id="Dégradé_sans_nom_1411" data-name="Dégradé sans nom 141" cy="100.44" fy="100.44" r="79.7" xlink:href="#Dégradé_sans_nom_141"/>
    <linearGradient id="Dégradé_sans_nom_1951" data-name="Dégradé sans nom 195" y1="140.88" y2="140.88" xlink:href="#Dégradé_sans_nom_195"/>
    <linearGradient id="Dégradé_sans_nom_142" data-name="Dégradé sans nom 14" y1="140.91" y2="140.91" xlink:href="#Dégradé_sans_nom_14"/>
    <radialGradient id="Dégradé_sans_nom_1412" data-name="Dégradé sans nom 141" cx="155.15" cy="50.03" fx="155.15" fy="50.03" r="125.64" xlink:href="#Dégradé_sans_nom_141"/>
    <linearGradient id="Dégradé_sans_nom_1952" data-name="Dégradé sans nom 195" y1="96.8" y2="96.8" xlink:href="#Dégradé_sans_nom_195"/>
    <linearGradient id="Dégradé_sans_nom_143" data-name="Dégradé sans nom 14" y1="96.83" y2="96.83" xlink:href="#Dégradé_sans_nom_14"/>
  </defs>
  <polygon class="st0" points="195.21 144.59 177.29 154.9 97.6 200.9 17.92 154.9 0 144.54 97.6 88.18 195.21 144.59"/>
  <polygon class="st5" points="97.6 200.9 97.6 225.43 0 169.07 0 144.54 17.92 154.9 97.6 200.9"/>
  <polygon class="st1" points="195.21 144.59 195.21 169.12 97.6 225.43 97.6 200.9 177.29 154.9 195.21 144.59"/>
  <polygon class="st3" points="195.21 100.49 177.29 110.8 97.6 156.8 17.92 110.8 0 100.44 97.6 44.08 195.21 100.49"/>
  <polygon class="st8" points="97.6 156.8 97.6 181.33 0 124.97 0 100.44 17.92 110.8 97.6 156.8"/>
  <polygon class="st2" points="195.21 100.49 195.21 125.02 97.6 181.33 97.6 156.8 177.29 110.8 195.21 100.49"/>
  <polygon class="st4" points="195.21 56.41 177.29 66.72 97.6 112.72 17.92 66.72 0 56.36 97.6 0 195.21 56.41"/>
  <polygon class="st6" points="97.6 112.72 97.6 137.25 0 80.89 0 56.36 17.92 66.72 97.6 112.72"/>
  <polygon class="st7" points="195.21 56.41 195.21 80.94 97.6 137.25 97.6 112.72 177.29 66.72 195.21 56.41"/>
</svg>