<?xml version="1.0" encoding="UTF-8"?>
<svg id="Calque_1" xmlns="http://www.w3.org/2000/svg" version="1.1" viewBox="0 0 195.21 225.43">
  <!-- Generator: Adobe Illustrator 29.8.3, SVG Export Plug-In . SVG Version: 2.1.1 Build 3)  -->
  <defs>
    <style>
      .st0 {
        fill: #070707;
      }
    </style>
  </defs>
  <path class="st0" d="M97.61,0L0,56.35v24.55l16.92,9.77L0,100.43v24.55l16.94,9.79L0,144.54v24.52l97.61,56.36,97.6-56.32v-24.52l-16.92-9.79,16.92-9.77v-24.54l-16.92-9.79,16.92-9.76v-24.54L97.61,0ZM173.69,82.74l-4.61,2.67-9.16,5.28-.03.02-28.96,16.73-9.19,5.3-24.12,13.92-24.12-13.94-9.19-5.3-28.98-16.74v-.02l-9.17-5.3h-.02l-4.59-2.67-12.34-7.12v-13.89L97.61,10.62l88.41,51.11v13.89l-12.33,7.12ZM173.67,126.84l-4.59,2.65-9.19,5.3.02.02-62.29,35.93-62.28-35.98h-.02l-9.17-5.31-4.59-2.65-12.36-7.14v-13.89l12.34-7.14,4.59-2.63,28.98,16.73,9.19,5.31,33.31,19.22,33.3-19.21,9.19-5.3,28.98-16.73,16.94,9.79v13.89l-12.34,7.14ZM186.02,149.89v13.92l-88.41,51L9.19,163.76v-13.92l12.36-7.14,4.56-2.63h.02l71.48,41.28,71.47-41.25h.02l4.56,2.65,12.36,7.14Z"/>
</svg>