<?xml version="1.0" encoding="iso-8859-1"?>
<!-- Generator: Adobe Illustrator 24.1.2, SVG Export Plug-In . SVG Version: 6.00 Build 0)  -->
<svg version="1.1" baseProfile="basic" id="Layer_1"
	 xmlns="http://www.w3.org/2000/svg" xmlns:xlink="http://www.w3.org/1999/xlink" x="0px" y="0px" viewBox="0 0 50 50"
	 xml:space="preserve">
<polygon style="fill:none;stroke:currentColor;stroke-width:0.5;stroke-linecap:round;stroke-linejoin:round;stroke-miterlimit:10;" points="
	20,38.279 17,36.547 18,35.97 21,37.702 "/>
<polygon style="fill:none;stroke:currentColor;stroke-width:0.5;stroke-linecap:round;stroke-linejoin:round;stroke-miterlimit:10;" points="
	24,35.97 21,34.238 22,33.66 25,35.392 "/>
<polygon style="fill:none;stroke:currentColor;stroke-width:0.5;stroke-linecap:round;stroke-linejoin:round;stroke-miterlimit:10;" points="
	28,33.66 25,31.928 26,31.351 29,33.083 "/>
<polygon style="fill:none;stroke:currentColor;stroke-width:0.5;stroke-linecap:round;stroke-linejoin:round;stroke-miterlimit:10;" points="
	32,31.351 29,29.619 30,29.041 33,30.774 "/>
<polygon style="fill:none;stroke:currentColor;stroke-width:0.5;stroke-linecap:round;stroke-linejoin:round;stroke-miterlimit:10;" points="
	36,29.041 33,27.309 34,26.732 37,28.464 "/>
<polygon style="fill:none;stroke:currentColor;stroke-width:0.5;stroke-linecap:round;stroke-linejoin:round;stroke-miterlimit:10;" points="
	40,26.732 37,25 38,24.423 41,26.155 "/>
<polygon style="fill:none;stroke:currentColor;stroke-width:0.5;stroke-linecap:round;stroke-linejoin:round;stroke-miterlimit:10;" points="
	44,24.423 41,22.691 42,22.113 45,23.845 "/>
<polygon style="fill:none;stroke:currentColor;stroke-width:0.5;stroke-linecap:round;stroke-linejoin:round;stroke-miterlimit:10;" points="
	39,16.917 37,18.072 37,11.144 31,7.68 5,22.691 2,31.351 11,33.083 8,34.815 8,37.124 17,42.32 48,24.423 48,22.113 "/>
<polyline style="fill:none;stroke:currentColor;stroke-width:0.5;stroke-linecap:round;stroke-linejoin:round;stroke-miterlimit:10;" points="
	48,22.113 17,40.011 8,34.815 "/>
<line style="fill:none;stroke:currentColor;stroke-width:0.5;stroke-linecap:round;stroke-linejoin:round;stroke-miterlimit:10;" x1="17" y1="40.011" x2="17" y2="42.32"/>
<polyline style="fill:none;stroke:currentColor;stroke-width:0.5;stroke-linecap:round;stroke-linejoin:round;stroke-miterlimit:10;" points="
	3,28.464 5,29.619 5,31.928 "/>
<polyline style="fill:none;stroke:currentColor;stroke-width:0.5;stroke-linecap:round;stroke-linejoin:round;stroke-miterlimit:10;" points="
	5,22.691 11,26.155 11,33.083 37,18.072 "/>
<polyline style="fill:none;stroke:currentColor;stroke-width:0.5;stroke-linecap:round;stroke-linejoin:round;stroke-miterlimit:10;" points="
	26,10.566 32,14.03 32,20.959 "/>
<polyline style="fill:none;stroke:currentColor;stroke-width:0.5;stroke-linecap:round;stroke-linejoin:round;stroke-miterlimit:10;" points="
	28,9.412 34,12.876 34,19.804 "/>
<line style="fill:none;stroke:currentColor;stroke-width:0.5;stroke-linecap:round;stroke-linejoin:round;stroke-miterlimit:10;" x1="37" y1="11.144" x2="2" y2="31.351"/>
<path d="M31,7.679l6,3.464v6.928l2-1.155l9,5.196v2.309L17,42.32l-9-5.196v-2.309l3-1.732l-9-1.732l3-8.66L31,7.679 M31,6.525
	l-0.5,0.289l-26,15.011l-0.323,0.186l-0.122,0.352l-3,8.66l-0.378,1.091l1.134,0.218l6.366,1.225L7.5,33.949L7,34.238v0.577v2.309
	v0.577l0.5,0.289l9,5.196l0.5,0.289l0.5-0.289l31-17.898L49,25v-0.577v-2.309v-0.577l-0.5-0.289l-9-5.196L39,15.762l-0.5,0.289
	L38,16.34v-5.196v-0.577l-0.5-0.289l-6-3.464L31,6.525L31,6.525z"/>
</svg>