<?xml version="1.0" encoding="iso-8859-1"?>
<!-- Generator: Adobe Illustrator 24.1.2, SVG Export Plug-In . SVG Version: 6.00 Build 0)  -->
<svg version="1.1" baseProfile="basic" id="Layer_1"
	 xmlns="http://www.w3.org/2000/svg" xmlns:xlink="http://www.w3.org/1999/xlink" x="0px" y="0px" viewBox="0 0 50 50"
	 xml:space="preserve">
<polygon style="fill:none;stroke:currentColor;stroke-width:0.5;stroke-linecap:round;stroke-linejoin:round;stroke-miterlimit:10;" points="
	16,14.03 16,16.34 18,17.494 18,15.185 "/>
<polygon style="fill:none;stroke:currentColor;stroke-width:0.5;stroke-linecap:round;stroke-linejoin:round;stroke-miterlimit:10;" points="
	22,17.494 22,19.804 24,20.959 24,18.649 "/>
<polygon style="fill:none;stroke:currentColor;stroke-width:0.5;stroke-linecap:round;stroke-linejoin:round;stroke-miterlimit:10;" points="
	18,23.268 19,31.928 21,33.083 22,25.577 21,23.845 19,22.691 "/>
<polygon style="fill:none;stroke:currentColor;stroke-width:0.5;stroke-linecap:round;stroke-linejoin:round;stroke-miterlimit:10;" points="
	38,41.74 30,46.36 10,34.81 13,26.15 10,18.65 10,10.57 23,3.06 29,6.52 34,15.19 34,17.49 36,18.65 36.05,26.75 31.72,31.19 
	35.67,33.47 "/>
<line style="fill:none;stroke:currentColor;stroke-width:0.5;stroke-linecap:round;stroke-linejoin:round;stroke-miterlimit:10;" x1="27" y1="44.63" x2="24" y2="32.506"/>
<polyline style="fill:none;stroke:currentColor;stroke-width:0.5;stroke-linecap:round;stroke-linejoin:round;stroke-miterlimit:10;" points="
	12,9.412 12,18.649 16,27.887 17,34.238 23,37.702 24,32.506 28,27.887 28,18.649 23,9.989 17,6.525 "/>
<polyline style="fill:none;stroke:currentColor;stroke-width:0.5;stroke-linecap:round;stroke-linejoin:round;stroke-miterlimit:10;" points="
	17,34.238 14.331,32.697 16.555,31.412 "/>
<line style="fill:none;stroke:currentColor;stroke-width:0.5;stroke-linecap:round;stroke-linejoin:round;stroke-miterlimit:10;" x1="16" y1="27.887" x2="13" y2="36.547"/>
<polyline style="fill:none;stroke:currentColor;stroke-width:0.5;stroke-linecap:round;stroke-linejoin:round;stroke-miterlimit:10;" points="
	25.666,39.241 23,37.702 25,36.547 "/>
<polyline style="fill:none;stroke:currentColor;stroke-width:0.5;stroke-linecap:round;stroke-linejoin:round;stroke-miterlimit:10;" points="
	36,42.898 31,31.928 31.72,31.19 "/>
<line style="fill:none;stroke:currentColor;stroke-width:0.5;stroke-linecap:round;stroke-linejoin:round;stroke-miterlimit:10;" x1="32.528" y1="35.281" x2="35.67" y2="33.47"/>
<polyline style="fill:none;stroke:currentColor;stroke-width:0.5;stroke-linecap:round;stroke-linejoin:round;stroke-miterlimit:10;" points="
	18,34.815 19,37.702 21,38.856 22,37.124 "/>
<polyline style="fill:none;stroke:currentColor;stroke-width:0.5;stroke-linecap:round;stroke-linejoin:round;stroke-miterlimit:10;" points="
	30,46.36 27,34.238 30,30.196 30,22.113 28,20.959 34,17.49 "/>
<line style="fill:none;stroke:currentColor;stroke-width:0.5;stroke-linecap:round;stroke-linejoin:round;stroke-miterlimit:10;" x1="30" y1="22.113" x2="36" y2="18.65"/>
<line style="fill:none;stroke:currentColor;stroke-width:0.5;stroke-linecap:round;stroke-linejoin:round;stroke-miterlimit:10;" x1="30" y1="30.196" x2="36.05" y2="26.75"/>
<line style="fill:none;stroke:currentColor;stroke-width:0.5;stroke-linecap:round;stroke-linejoin:round;stroke-miterlimit:10;" x1="27" y1="34.238" x2="31" y2="31.928"/>
<line style="fill:none;stroke:currentColor;stroke-width:0.5;stroke-linecap:round;stroke-linejoin:round;stroke-miterlimit:10;" x1="28" y1="18.649" x2="34" y2="15.19"/>
<line style="fill:none;stroke:currentColor;stroke-width:0.5;stroke-linecap:round;stroke-linejoin:round;stroke-miterlimit:10;" x1="23" y1="9.989" x2="29" y2="6.52"/>
<line style="fill:none;stroke:currentColor;stroke-width:0.5;stroke-linecap:round;stroke-linejoin:round;stroke-miterlimit:10;" x1="10" y1="10.57" x2="12" y2="11.721"/>
<path d="M23,3.06l6,3.46l5,8.67v2.3l2,1.16l0.05,8.1l-4.33,4.44l3.95,2.28L38,41.74l-8,4.62L10,34.81l3-8.66l-3-7.5v-8.08L23,3.06
	 M23,1.905l-0.5,0.289l-13,7.51L9,9.993v0.577v8.08v0.193l0.072,0.179l2.861,7.154l-2.878,8.308l-0.27,0.78L9.5,35.676l20,11.55
	l0.5,0.289l0.5-0.289l8-4.62l0.673-0.389l-0.211-0.748l-2.33-8.27l-0.11-0.392l-0.352-0.203l-2.836-1.637l3.432-3.519l0.287-0.294
	l-0.003-0.41l-0.05-8.1l-0.004-0.572l-0.495-0.287L35,16.914V15.19v-0.268l-0.134-0.232l-5-8.67l-0.134-0.233L29.5,5.654l-6-3.46
	L23,1.905L23,1.905z"/>
</svg>