<?xml version="1.0" encoding="iso-8859-1"?>
<!-- Generator: Adobe Illustrator 24.1.2, SVG Export Plug-In . SVG Version: 6.00 Build 0)  -->
<svg version="1.1" baseProfile="basic" id="Layer_1"
	 xmlns="http://www.w3.org/2000/svg" xmlns:xlink="http://www.w3.org/1999/xlink" x="0px" y="0px" viewBox="0 0 50 50"
	 xml:space="preserve">
<polygon style="fill:none;stroke:currentColor;stroke-width:0.5;stroke-linejoin:round;stroke-miterlimit:10;" points="41,20.38 
	41,38.86 30,45.21 8,32.51 8,14.03 16,9.41 16,8.26 20,5.95 23,4.22 30,8.26 33,13.45 33,15.76 "/>
<polyline style="fill:none;stroke:currentColor;stroke-width:0.5;stroke-linejoin:round;stroke-miterlimit:10;" points="8,14.03 
	30,26.732 41,20.38 "/>
<line style="fill:none;stroke:currentColor;stroke-width:0.5;stroke-linejoin:round;stroke-miterlimit:10;" x1="30" y1="26.732" x2="30" y2="45.21"/>
<polygon style="fill:none;stroke:currentColor;stroke-width:0.5;stroke-linejoin:round;stroke-miterlimit:10;" points="17.001,26.155 
	17.001,30.774 18.001,31.352 18,33.66 20.001,34.816 20.001,32.506 21,31.928 21,28.464 "/>
<polyline style="fill:none;stroke:currentColor;stroke-width:0.5;stroke-linejoin:round;stroke-miterlimit:10;" points="16,9.41 
	16,14.03 19,15.762 22,14.03 22,10.566 25,12.298 27,15.762 27,20.381 30,22.113 33,20.381 33,15.76 "/>
<polyline style="fill:none;stroke:currentColor;stroke-width:0.5;stroke-linejoin:round;stroke-miterlimit:10;" points="30,22.113 
	30,15.185 27,9.989 20,5.95 "/>
<polyline style="fill:none;stroke:currentColor;stroke-width:0.5;stroke-linejoin:round;stroke-miterlimit:10;" points="22,10.566 
	21,9.989 19,11.144 19,15.762 "/>
<line style="fill:none;stroke:currentColor;stroke-width:0.5;stroke-linejoin:round;stroke-miterlimit:10;" x1="30" y1="15.185" x2="33" y2="13.45"/>
<line style="fill:none;stroke:currentColor;stroke-width:0.5;stroke-linejoin:round;stroke-miterlimit:10;" x1="27" y1="9.989" x2="30" y2="8.26"/>
<polyline style="fill:none;stroke:currentColor;stroke-width:0.5;stroke-linejoin:round;stroke-miterlimit:10;" points="18,26.732 
	18.001,30.197 19.001,30.774 19.001,33.084 20,33.66 "/>
<polyline style="fill:none;stroke:currentColor;stroke-width:0.5;stroke-linejoin:round;stroke-miterlimit:10;" points="20.001,32.506 
	21.001,33.084 21,31.928 "/>
<line style="fill:none;stroke:currentColor;stroke-width:0.5;stroke-linejoin:round;stroke-miterlimit:10;" x1="18.001" y1="31.352" x2="19.001" y2="30.774"/>
<line style="fill:none;stroke:currentColor;stroke-width:0.5;stroke-linejoin:round;stroke-miterlimit:10;" x1="18" y1="33.66" x2="19.001" y2="33.084"/>
<line style="fill:none;stroke:currentColor;stroke-width:0.5;stroke-linejoin:round;stroke-miterlimit:10;" x1="17.001" y1="30.774" x2="18.001" y2="30.197"/>
<path d="M23,4.22l7,4.04l3,5.19v2.31l8,4.62v18.48l-11,6.35L8,32.51V14.03l8-4.62V8.26l4-2.31L23,4.22 M23,3.065l-0.5,0.288l-3,1.73
	L15.5,7.394L15,7.683V8.26v0.573l-7.5,4.331L7,13.453v0.577v18.48v0.577l0.5,0.289l22,12.7l0.5,0.289l0.5-0.289l11-6.35l0.5-0.289
	V38.86V20.38v-0.577l-0.5-0.289L34,15.183V13.45v-0.268l-0.134-0.232l-3-5.19l-0.134-0.232L30.5,7.394l-7-4.04L23,3.065L23,3.065z"
	/>
</svg>