<?xml version="1.0" encoding="iso-8859-1"?>
<!-- Generator: Adobe Illustrator 25.4.1, SVG Export Plug-In . SVG Version: 6.00 Build 0)  -->
<svg version="1.1" baseProfile="basic" id="Layer_1"
	 xmlns="http://www.w3.org/2000/svg" xmlns:xlink="http://www.w3.org/1999/xlink" x="0px" y="0px" viewBox="0 0 50 50"
	 xml:space="preserve">
<polygon style="fill-rule:evenodd;clip-rule:evenodd;" points="24.238,20.994 24.238,22.994 25.97,23.994 25.97,21.994 "/>
<polygon style="fill-rule:evenodd;clip-rule:evenodd;" points="15.578,15.994 15.578,17.994 17.31,18.994 17.31,16.994 "/>
<polygon style="fill:none;stroke:currentColor;stroke-linecap:round;stroke-linejoin:round;stroke-miterlimit:10;" points="17.321,39 
	17.31,45.994 22.517,49 42.435,37.5 42.425,15.494 35.507,11.5 35.507,10.5 29.445,7 28.579,7.5 24.249,5 24.249,4 18.187,0.5 
	15.589,2 15.589,8 12.124,10 12.124,29 9.526,30.5 6.928,29 6.052,29.494 6.052,39.494 11.258,42.5 "/>
<polyline style="fill:none;stroke:currentColor;stroke-width:0.5;stroke-linecap:round;stroke-linejoin:round;stroke-miterlimit:10;" points="
	39.837,14 29.445,20 29.445,39 25.115,41.5 25.115,39.5 23.383,38.5 22.517,39 22.517,49 "/>
<polygon style="fill:none;stroke:currentColor;stroke-width:0.5;stroke-linecap:round;stroke-linejoin:round;stroke-miterlimit:10;" points="
	32.909,37 36.373,39 40.703,36.5 40.703,28.5 37.239,23.5 32.909,26 "/>
<polyline style="fill:none;stroke:currentColor;stroke-width:0.5;stroke-linecap:round;stroke-linejoin:round;stroke-miterlimit:10;" points="
	32.909,26 36.373,31 36.373,39 "/>
<line style="fill:none;stroke:currentColor;stroke-width:0.5;stroke-linecap:round;stroke-linejoin:round;stroke-miterlimit:10;" x1="36.373" y1="31" x2="40.703" y2="28.5"/>
<polyline style="fill:none;stroke:currentColor;stroke-width:0.5;stroke-linecap:round;stroke-linejoin:round;stroke-miterlimit:10;" points="
	17.321,39 17.321,36 18.187,35.5 23.383,38.5 "/>
<line style="fill:none;stroke:currentColor;stroke-width:0.5;stroke-linecap:round;stroke-linejoin:round;stroke-miterlimit:10;" x1="17.321" y1="36" x2="22.517" y2="39"/>
<polyline style="fill:none;stroke:currentColor;stroke-width:0.5;stroke-linecap:round;stroke-linejoin:round;stroke-miterlimit:10;" points="
	20.967,36.868 23.383,35.5 29.445,39 "/>
<polyline style="fill:none;stroke:currentColor;stroke-width:0.5;stroke-linecap:round;stroke-linejoin:round;stroke-miterlimit:10;" points="
	18.187,35.263 18.187,32.5 13.856,35 13.856,33 12.124,32 11.258,32.5 11.258,42.5 "/>
<line style="fill:none;stroke:currentColor;stroke-width:0.5;stroke-linecap:round;stroke-linejoin:round;stroke-miterlimit:10;" x1="6.062" y1="29.5" x2="11.258" y2="32.5"/>
<line style="fill:none;stroke:currentColor;stroke-width:0.5;stroke-linecap:round;stroke-linejoin:round;stroke-miterlimit:10;" x1="9.526" y1="30.5" x2="12.124" y2="32"/>
<line style="fill:none;stroke:currentColor;stroke-width:0.5;stroke-linecap:round;stroke-linejoin:round;stroke-miterlimit:10;" x1="12.124" y1="29" x2="18.187" y2="32.5"/>
<polygon style="fill:none;stroke:currentColor;stroke-width:0.5;stroke-linecap:round;stroke-linejoin:round;stroke-miterlimit:10;" points="
	18.187,21.5 15.589,23 15.589,28 20.785,31 23.383,29.5 23.383,24.5 "/>
<polyline style="fill:none;stroke:currentColor;stroke-width:0.5;stroke-linecap:round;stroke-linejoin:round;stroke-miterlimit:10;" points="
	20.785,31 20.785,26 23.383,24.5 "/>
<line style="fill:none;stroke:currentColor;stroke-width:0.5;stroke-linecap:round;stroke-linejoin:round;stroke-miterlimit:10;" x1="20.785" y1="26" x2="15.589" y2="23"/>
<polygon style="fill-rule:evenodd;clip-rule:evenodd;" points="19.919,27.5 19.919,25.5 20.785,25 17.321,23 16.454,23.5 
	16.454,25.5 17.687,27.122 "/>
<polygon style="fill:none;stroke:currentColor;stroke-width:0.5;stroke-linecap:round;stroke-linejoin:round;stroke-miterlimit:10;" points="
	19.919,27.5 19.919,25.5 20.785,25 17.321,23 16.454,23.5 16.454,25.5 17.687,27.122 "/>
<polygon style="fill:none;stroke:currentColor;stroke-width:0.5;stroke-linecap:round;stroke-linejoin:round;stroke-miterlimit:10;" points="
	23.383,24.5 26.847,26.5 26.847,21.5 23.383,19.5 "/>
<polygon style="fill:none;stroke:currentColor;stroke-width:0.5;stroke-linecap:round;stroke-linejoin:round;stroke-miterlimit:10;" points="
	18.187,21.5 18.187,16.5 14.722,14.5 14.722,19.5 "/>
<polyline style="fill:none;stroke:currentColor;stroke-width:0.5;stroke-linecap:round;stroke-linejoin:round;stroke-miterlimit:10;" points="
	32.043,17.5 32.909,18 35.507,16.5 35.507,11.5 "/>
<polyline style="fill:none;stroke:currentColor;stroke-width:0.5;stroke-linecap:round;stroke-linejoin:round;stroke-miterlimit:10;" points="
	32.043,17.5 32.043,12.5 27.713,10 27.713,15 26.847,14.5 26.847,8.5 28.579,7.5 "/>
<polyline style="fill:none;stroke:currentColor;stroke-width:0.5;stroke-linecap:round;stroke-linejoin:round;stroke-miterlimit:10;" points="
	27.713,15 28.579,14.5 32.043,16.5 "/>
<line style="fill:none;stroke:currentColor;stroke-width:0.5;stroke-linecap:round;stroke-linejoin:round;stroke-miterlimit:10;" x1="28.579" y1="14.5" x2="28.579" y2="10.5"/>
<polyline style="fill:none;stroke:currentColor;stroke-width:0.5;stroke-linecap:round;stroke-linejoin:round;stroke-miterlimit:10;" points="
	32.909,18 32.909,12 35.507,10.5 "/>
<line style="fill:none;stroke:currentColor;stroke-width:0.5;stroke-linecap:round;stroke-linejoin:round;stroke-miterlimit:10;" x1="32.909" y1="12" x2="26.847" y2="8.5"/>
<polyline style="fill:none;stroke:currentColor;stroke-width:0.5;stroke-linecap:round;stroke-linejoin:round;stroke-miterlimit:10;" points="
	15.589,8 16.454,8.5 16.454,3.5 20.785,6 20.785,11 21.651,11.5 24.249,10 24.238,4.994 "/>
<polyline style="fill:none;stroke:currentColor;stroke-width:0.5;stroke-linecap:round;stroke-linejoin:round;stroke-miterlimit:10;" points="
	21.651,11.5 21.651,5.5 24.238,3.994 "/>
<line style="fill:none;stroke:currentColor;stroke-width:0.5;stroke-linecap:round;stroke-linejoin:round;stroke-miterlimit:10;" x1="21.651" y1="5.5" x2="15.589" y2="2"/>
<polyline style="fill:none;stroke:currentColor;stroke-width:0.5;stroke-linecap:round;stroke-linejoin:round;stroke-miterlimit:10;" points="
	16.454,8.5 17.321,8 17.321,4 "/>
<line style="fill:none;stroke:currentColor;stroke-width:0.5;stroke-linecap:round;stroke-linejoin:round;stroke-miterlimit:10;" x1="17.321" y1="8" x2="20.785" y2="10"/>
<line style="fill:none;stroke:currentColor;stroke-width:0.5;stroke-linecap:round;stroke-linejoin:round;stroke-miterlimit:10;" x1="12.124" y1="10" x2="29.445" y2="20"/>
</svg>