<?xml version="1.0" encoding="iso-8859-1"?>
<!-- Generator: Adobe Illustrator 24.1.2, SVG Export Plug-In . SVG Version: 6.00 Build 0)  -->
<svg version="1.1" baseProfile="basic" id="Layer_1"
	 xmlns="http://www.w3.org/2000/svg" xmlns:xlink="http://www.w3.org/1999/xlink" x="0px" y="0px" viewBox="0 0 50 50"
	 xml:space="preserve">
<polygon style="fill:none;stroke:currentColor;stroke-width:0.5;stroke-linecap:round;stroke-linejoin:round;stroke-miterlimit:10;" points="
	41,22.69 37,40.01 25,46.94 13,40.01 9,22.69 23,14.61 23,13.71 15,11.14 13,5.37 13,3.06 23,4.22 26,10.57 35,11.14 38,17.49 
	38,19.8 35.25,19.37 "/>
<polyline style="fill:none;stroke:currentColor;stroke-width:0.5;stroke-linecap:round;stroke-linejoin:round;stroke-miterlimit:10;" points="
	13,3.06 15,8.834 24,11.721 27,15.762 38,17.49 "/>
<polyline style="fill:none;stroke:currentColor;stroke-width:0.5;stroke-linecap:round;stroke-linejoin:round;stroke-miterlimit:10;" points="
	35.25,19.37 27,18.072 25,15.377 25,25 "/>
<polyline style="fill:none;stroke:currentColor;stroke-width:0.5;stroke-linecap:round;stroke-linejoin:round;stroke-miterlimit:10;" points="
	23,14.61 23,23.845 25,25 27,23.845 27,18.072 "/>
<line style="fill:none;stroke:currentColor;stroke-width:0.5;stroke-linecap:round;stroke-linejoin:round;stroke-miterlimit:10;" x1="27" y1="15.762" x2="35" y2="11.14"/>
<line style="fill:none;stroke:currentColor;stroke-width:0.5;stroke-linecap:round;stroke-linejoin:round;stroke-miterlimit:10;" x1="24" y1="11.721" x2="26" y2="10.57"/>
<polyline style="fill:none;stroke:currentColor;stroke-width:0.5;stroke-linecap:round;stroke-linejoin:round;stroke-miterlimit:10;" points="
	23,4.22 15,8.834 15,11.14 "/>
<polyline style="fill:none;stroke:currentColor;stroke-width:0.5;stroke-linecap:round;stroke-linejoin:round;stroke-miterlimit:10;" points="
	23,16.917 13,22.691 25,29.619 37,22.691 29.75,18.505 "/>
<line style="fill:none;stroke:currentColor;stroke-width:0.5;stroke-linecap:round;stroke-linejoin:round;stroke-miterlimit:10;" x1="15" y1="23.845" x2="23" y2="19.226"/>
<line style="fill:none;stroke:currentColor;stroke-width:0.5;stroke-linecap:round;stroke-linejoin:round;stroke-miterlimit:10;" x1="27" y1="19.227" x2="35" y2="23.845"/>
<polyline style="fill:none;stroke:currentColor;stroke-width:0.5;stroke-linecap:round;stroke-linejoin:round;stroke-miterlimit:10;" points="
	9,22.69 25,31.928 41,22.69 "/>
<line style="fill:none;stroke:currentColor;stroke-width:0.5;stroke-linecap:round;stroke-linejoin:round;stroke-miterlimit:10;" x1="25" y1="31.928" x2="25" y2="46.94"/>
<path d="M13,3.06l10,1.16l3,6.35l9,0.57l3,6.35v2.31l-2.75-0.43L41,22.69l-4,17.32l-12,6.93l-12-6.93L9,22.69l14-8.08v-0.9l-8-2.57
	l-2-5.77V3.06 M12,1.937V3.06v2.31v0.168l0.055,0.159l2,5.77l0.164,0.472l0.475,0.153l6.853,2.202L8.5,21.824l-0.641,0.37
	l0.167,0.721l4,17.32l0.098,0.424l0.376,0.217l12,6.93l0.5,0.289l0.5-0.289l12-6.93l0.376-0.217l0.098-0.424l4-17.32l0.167-0.721
	l-0.641-0.37L39,20.38V19.8v-2.31v-0.224l-0.096-0.203l-3-6.35l-0.252-0.534l-0.589-0.037l-8.411-0.533l-2.748-5.817l-0.237-0.502
	l-0.552-0.064l-10-1.16L12,1.937L12,1.937z"/>
</svg>