<?xml version="1.0" encoding="iso-8859-1"?>
<!-- Generator: Adobe Illustrator 24.1.2, SVG Export Plug-In . SVG Version: 6.00 Build 0)  -->
<svg version="1.1" baseProfile="basic" id="Layer_1"
	 xmlns="http://www.w3.org/2000/svg" xmlns:xlink="http://www.w3.org/1999/xlink" x="0px" y="0px" viewBox="0 0 50 50"
	 xml:space="preserve">
<g style="display:none;">
	<polygon style="display:inline;fill:currentColor;" points="25,24.354 17.441,28.719 19.222,25.128 25,21.792 	"/>
	<polygon style="display:inline;fill:currentColor;" points="25,29.232 17.664,33.467 15.666,32.313 25,26.923 	"/>
	<polygon style="display:inline;fill:currentColor;" points="25,26.923 15.666,32.313 17.441,28.719 25,24.354 	"/>
	<polygon style="display:inline;fill:currentColor;" points="25,24.354 32.559,28.719 30.778,25.128 25,21.792 	"/>
	<polygon style="display:inline;fill:currentColor;" points="29.178,21.896 25,19.483 20.822,21.896 19.222,25.128 25,21.792 
		30.778,25.128 	"/>
	<polygon style="display:inline;fill:currentColor;" points="25,29.232 32.333,33.468 34.334,32.313 25,26.923 	"/>
	<polygon style="display:inline;fill:currentColor;" points="25,26.923 34.334,32.313 32.559,28.719 25,24.354 	"/>
	<polygon style="display:inline;fill:currentColor;" points="11,38.856 23,14.608 25,13.453 13,37.702 	"/>
	<polygon style="display:inline;fill:currentColor;" points="15.666,32.313 13.664,33.466 23,38.856 23,36.547 	"/>
	<path style="display:inline;fill:currentColor;" d="M23,14.608L23,14.608l-2-1.155L9,37.702l2,1.155l1.778-3.592L23,41.166v4.619
		l2,1.155l0-31.177L23,14.608z M23,14.608v15.011l-5.778-3.336L23,14.608z M13.667,33.468l2.667-5.389L23,31.928v6.928
		L13.667,33.468z"/>
	<polygon style="display:inline;fill:currentColor;" points="19.222,25.128 17.221,26.282 23,29.619 23,27.309 	"/>
	<polygon style="display:inline;fill:currentColor;" points="39,38.856 27,14.608 25,13.453 37,37.702 	"/>
	<polygon style="display:inline;fill:currentColor;" points="34.334,32.313 36.336,33.466 27,38.856 27,36.547 	"/>
	<polygon style="display:inline;fill:currentColor;" points="30.778,25.128 32.779,26.282 27,29.619 27,27.309 	"/>
	<polygon style="display:inline;fill:currentColor;" points="13,4.215 13,14.608 11,15.762 11,5.37 	"/>
	<polygon style="display:inline;fill:currentColor;" points="9,4.215 9,14.608 11,15.762 11,5.37 	"/>
	<polygon style="display:inline;fill:currentColor;" points="13,6.525 15,5.37 17,6.525 15,7.679 	"/>
	<polygon style="display:inline;fill:currentColor;" points="9,4.215 11,3.061 13,4.215 11,5.37 	"/>
	<polygon style="display:inline;fill:currentColor;" points="17,6.525 17,14.608 15,15.762 15,7.679 	"/>
	<polygon style="display:inline;fill:currentColor;" points="13,6.525 13,14.608 15,15.762 15,7.679 	"/>
	<polygon style="display:inline;fill:currentColor;" points="37,4.215 37,14.608 39,15.762 39,5.37 	"/>
	<polygon style="display:inline;fill:currentColor;" points="41,4.215 41,14.608 39,15.762 39,5.37 	"/>
	<polygon style="display:inline;fill:currentColor;" points="37,6.525 35,5.37 33,6.525 35,7.679 	"/>
	<polygon style="display:inline;fill:currentColor;" points="41,4.215 39,3.061 37,4.215 39,5.37 	"/>
	<polygon style="display:inline;fill:currentColor;" points="33,6.525 33,14.608 35,15.762 35,7.679 	"/>
	<polygon style="display:inline;fill:currentColor;" points="37,6.525 37,14.608 35,15.762 35,7.679 	"/>
	<path style="display:inline;fill:currentColor;" d="M27,14.608L27,14.608l2-1.155l12,24.249l-2,1.155l-1.778-3.592L27,41.166v4.619
		l-2,1.155l0-31.177L27,14.608z M27,14.608v15.011l5.778-3.336L27,14.608z M36.333,33.468l-2.667-5.389L27,31.928v6.928
		L36.333,33.468z"/>
	<polygon style="display:inline;fill:currentColor;" points="25,11.144 20,8.257 20,14.03 25,16.917 	"/>
	<polygon style="display:inline;fill:currentColor;" points="25,11.144 30,8.257 30,14.03 25,16.917 	"/>
	<polygon style="display:inline;fill:currentColor;" points="25,11.144 20,8.257 25,5.37 30,8.257 	"/>
</g>
<path style="fill:none;stroke:currentColor;stroke-width:0.5;stroke-linecap:round;stroke-linejoin:round;stroke-miterlimit:10;" d="
	M13,14.61l2,1.15l2-1.15V6.52l-2-1.15l-2,1.15v-2.3l-2-1.16L9,4.22v10.39l2,1.15L13,14.61z M-256,115.52l24-13.86l-18-31.18l-6,3.47
	l-4,2.31l14,24.25l-14,8.08L-256,115.52z M-163,37.7V18.07l-13-7.5l1-0.58V5.37l-4-2.31l-4,2.31v4.62l1,0.58l-13,7.5V37.7l16,9.24
	L-163,37.7z M-125,21.54V25l2,3.46l-1.54,0.89l-0.46,0.27l0.59,1.03l2.41,4.16l2-1.15l2,3.46l1.64,0.95l1.36,0.79v3.46l3.56,2.05
	l0.44,0.26l3-1.73l2.01-1.16l1.99,3.47l3-1.73l4-2.31l-1.38-2.4L-99,37.7l1-0.58l4-2.31V30.2l-1.43-0.83L-97,28.46V25l-0.08-0.14
	L-99,21.54l1.53-0.89l0.47-0.27l-3-5.2l-1.91,1.11l-0.09,0.05l-2-3.46l-1.65-0.96l-1.35-0.78V7.68l-4-2.31l-3,1.73l-2,1.16
	l-1.05-1.83L-118,4.79l-4,2.31l-3,1.73l1.42,2.47l0.58,1l-0.73,0.42l-1.27,0.73l-1.13,0.66l-1.87,1.08v4.61l1.45,0.84L-125,21.54z
	 M-107,31.93l2.64,1.52l0.36,0.21v2.31l-1,0.58l-2-1.16V31.93z M-118,14.03l1-0.58l1.13,0.65l0.87,0.51v3.46l-0.81-0.46l-2.19-1.22
	V14.03z M-307,113.78l6-3.46l-14-24.25l14-8.08l-4-6.93l-6,3.46l-18,10.4l18,31.17L-307,113.78z M-253,48.09l19.52-11.27l1.48-0.85
	v-2.31l-0.36-0.21l-2.64-1.52V20.38l-5.78-3.34l-1.22-0.7V9.41l-4-2.31V4.79l-2.03-1.17L-251,1.91l-2.97,1.71L-256,4.79V7.1l-4,2.31
	v17.32l4,2.31v2.31l-4,2.31v2.31l0.46,0.26l2.54,1.47l-2.62,1.52l-2.38,1.37v2.31l3.12,1.8L-253,48.09z M-306,182.36l6-3.46
	l-14-24.25l14-8.08l-10-5.78l-6,3.47l-14,8.08l14,24.25L-306,182.36z M-301,45.78V15.76l-24-13.85l-4,2.3v30.03l24,13.85L-301,45.78
	z M-251,181.78l14-8.08l6-3.46l-14-24.25l-10-5.77l-6,3.46l14,24.25l-14,8.08L-251,181.78z M87,43.48l6,3.46l6-3.46v-6.93l10-17.32
	l-4-9.24L93,3.06L81,9.99l-4,9.24l10,17.32V43.48z M92,70.48l-5,2.89v21.94l-2-1.16l-5,2.89l11,19.05l11-6.35l5-2.88l-7-4.05V75.1
	L92,70.48z M159,179.48l11,1.73l4-2.31l4-10.39l-4-15.02l-11-10.97l-11-1.73l-4,2.31l-4,10.39l4,15.02L159,179.48z M37,14.61l2,1.15
	l2-1.15V4.22l-2-1.16l-2,1.16v2.3l-2-1.15l-2,1.15v8.09l2,1.15L37,14.61z M157,48.09l9-5.19l6-3.47l-6-3.46l-1.2-5.31l3.2,1.85
	l6-3.47l-5-23.67l-6-3.46l-6,3.46l2.28,10.56l-3.28-1.9l-6,3.46l2.63,12.34L148,32.51L157,48.09z M13,37.7l0.89-1.79L23,41.17v4.61
	l2,1.16l2-1.16v-4.61l9.11-5.26L37,37.7l2,1.16l2-1.16L29.44,14.35L30,14.03V8.26l-5-2.89l-5,2.89v5.77l0.56,0.32L9,37.7l2,1.16
	L13,37.7z M27,17.49l2.18,4.41L27,20.64V17.49z M27,31.93l1.33-0.77l4,2.31L27,36.55V31.93z M23,17.49v3.15l-2.18,1.26L23,17.49z
	 M21.66,31.16L23,31.93v4.62l-5.33-3.08L21.66,31.16z M155,111.48l8,4.61l5-2.88V91.27l2,1.15l5-2.88l-11-19.06l-5,2.89l-11,6.35
	l7,4.04V111.48z M-43,46.94l13-7.51l4-11.54l-6-13.86l-4,2.31l-7-12.12l-6,9.23l-4-3.46l-7,17.9l4,11.54L-43,46.94z M-191,207.06
	v32.33l22,12.71l2-1.16v-32.33l-22-12.7L-191,207.06z M-58.99,208.21H-59v25.41l30,17.32l2-1.15v-25.41l-30-17.32L-58.99,208.21z
	 M-114,78.57l-18,10.39l4,6.93l14-8.09l14,24.25l10-5.77l-18-31.18L-114,78.57z M-41,142.52l-11-1.73l-4,2.31l-4,10.39l4,15.02
	l11,10.97l11,1.73l4-2.31l4-10.39l-4-15.02L-41,142.52z M-114,145.41l-14,8.08v11.55l14-8.08l14,24.25l6-3.47V166.2l-14-24.25
	L-114,145.41z M-125,207.06v28.87l28,16.16l2-1.15v-28.87l-28-16.16L-125,207.06z M27,142.52l-11-1.73l-4,2.31l-4,10.39l4,15.02
	l11,10.97l11,1.73l4-2.31l4-10.39l-4-15.02L27,142.52z M-38,85.49v2.31l-21-12.12l-5,2.89v9.23l26,15.01v8.09l11-6.35l5-2.89
	l-11-19.05L-38,85.49z M100,226.11v-4.62l-22-12.7l-2,1.16v20.78l13,7.51l5,8.66l8,2.31l8-4.62v-6.93l-3-7.51L100,226.11z
	 M95,142.52l-11-1.73l-4,2.31l-4,10.39l4,15.02l11,10.97l11,1.73l4-2.31l4-10.39l-4-15.02L95,142.52z M20,75.1L4,84.34l11,19.05
	l5-2.88V98.2l21,12.12l5-2.89V98.2L20,83.18V75.1z M-168,93.58l-8,4.62l-14-24.25l-6,3.46l-4,2.31l18,31.18l18-10.39l6-3.47l-4-6.93
	L-168,93.58z M-392,144.26l-13,7.5l8,13.86l5-2.89l26,15.01l5-2.88v-6.93l-31-17.9V144.26z M-176,166.2l-14-24.25l-6,3.46v11.55
	l14,24.25l20-11.55v-11.55l-6,3.47L-176,166.2z M-449,210.52l-11-1.73l-4,2.31l-4,10.39l4,15.02l11,10.97l11,1.73l4-2.31l4-10.39
	l-4-15.02L-449,210.52z M-442,159.27l-26-15.01l-5,2.88v6.93l31,17.9v5.77l13-7.5l-8-13.86L-442,159.27z M-434,106.28V95.89l-4-2.31
	v-12.7l-16-9.24l-2,1.15v2.31l-2-1.15l-2,1.15v2.31l-2-1.15l-2,1.15v12.7l-4,2.31v10.39l20,11.55L-434,106.28z M-462,37.12l15,8.66
	l11-6.35V23.27l-4-2.31l-4,2.31v-5.78l3-1.73V12.3l-3-5.2l-3,1.73v2.31l-1-0.57V4.79l-6,3.47v3.46l3,5.2h-4l-3.98-2.32l-7.02,4.05
	v13.86l4,2.3V37.12z M-362,97.04l-36-20.78l-6,3.46l18,31.18L-362,97.04z M-313,210.52l-11-1.73l-4,2.31l-4,10.39l4,15.02l11,10.97
	l11,1.73l4-2.31l4-10.39l-4-15.02L-313,210.52z M-245,210.52l-11-1.73l-4,2.31l-4,10.39l4,15.02l11,10.97l11,1.73l4-2.31l4-10.39
	l-4-15.02L-245,210.52z M-398.43,24.11l2.71,7.08l2.46-0.25l5.98,7.53v3.33l5.41,3.12l4.25-2.45v-1.32l1.73-0.18l2.46,3.09
	l4.25-2.45l2.71-3.95l-2.46-3.08v-6.97l2.45-1.42l-2.7-7.07l-2.46,0.24l-5.96-7.51l-0.02-3.35l-5.39-3.11l-0.02-0.01l-4.25,2.45
	v1.33h-0.01l-0.65,0.04l-1.13,0.06l-2.4-3.02l-4.25,2.45l-2.71,3.96l2.46,3.09v6.95L-398.43,24.11z M-389.05,15.78l0.08-0.12
	l0.5-0.77l1.19-0.11v6.17l-1.24,0.12l-0.54,0.05L-389.05,15.78z M-381,210.52l-11-1.73l-4,2.31l-4,10.39l4,15.02l11,10.97l11,1.73
	l4-2.31l4-10.39l-4-15.02L-381,210.52z M183,222.07l-14-8.08l-6,3.46l-3-2.88l-8-1.16l-8,4.62v10.39l-5,2.89v2.31l14,8.08l5-2.89
	l9,5.2l13-7.5v-4.62l-5-2.89l8-4.62V222.07z M26,233.04l-1-0.58l6-3.46v-4.62l3-1.73l2-1.16v-5.77l-3-5.2l-5-2.88l-2,1.15l-3,1.73
	v2.31l-2-1.15l-2,1.15l-4,2.31v6.93l4,6.93l-1-0.58l-9,5.2v5.77l3,5.2l9,5.19l3-1.73l9,2.89l8-4.62v-3.46l-9-2.89L26,233.04z"/>
<polyline style="fill:none;stroke:currentColor;stroke-width:0.5;stroke-linecap:round;stroke-linejoin:round;stroke-miterlimit:10;" points="
	9,4.22 11,5.37 13,4.22 "/>
<polyline style="fill:none;stroke:currentColor;stroke-width:0.5;stroke-linecap:round;stroke-linejoin:round;stroke-miterlimit:10;" points="
	17,6.52 15,7.679 13,6.52 13,14.61 "/>
<line style="fill:none;stroke:currentColor;stroke-width:0.5;stroke-linecap:round;stroke-linejoin:round;stroke-miterlimit:10;" x1="11" y1="5.37" x2="11" y2="15.76"/>
<line style="fill:none;stroke:currentColor;stroke-width:0.5;stroke-linecap:round;stroke-linejoin:round;stroke-miterlimit:10;" x1="15" y1="7.679" x2="15" y2="15.76"/>
<polyline style="fill:none;stroke:currentColor;stroke-width:0.5;stroke-linecap:round;stroke-linejoin:round;stroke-miterlimit:10;" points="
	33,6.52 35,7.679 37,6.52 37,14.61 "/>
<polyline style="fill:none;stroke:currentColor;stroke-width:0.5;stroke-linecap:round;stroke-linejoin:round;stroke-miterlimit:10;" points="
	37,4.22 39,5.37 41,4.22 "/>
<line style="fill:none;stroke:currentColor;stroke-width:0.5;stroke-linecap:round;stroke-linejoin:round;stroke-miterlimit:10;" x1="35" y1="7.679" x2="35" y2="15.76"/>
<line style="fill:none;stroke:currentColor;stroke-width:0.5;stroke-linecap:round;stroke-linejoin:round;stroke-miterlimit:10;" x1="39" y1="5.37" x2="39" y2="15.76"/>
<polyline style="fill:none;stroke:currentColor;stroke-width:0.5;stroke-linecap:round;stroke-linejoin:round;stroke-miterlimit:10;" points="
	20,8.26 25,11.144 30,8.26 "/>
<polyline style="fill:none;stroke:currentColor;stroke-width:0.5;stroke-linecap:round;stroke-linejoin:round;stroke-miterlimit:10;" points="
	20.56,14.35 25,16.917 29.44,14.35 "/>
<line style="fill:none;stroke:currentColor;stroke-width:0.5;stroke-linecap:round;stroke-linejoin:round;stroke-miterlimit:10;" x1="23" y1="17.49" x2="23" y2="15.762"/>
<polyline style="fill:none;stroke:currentColor;stroke-width:0.5;stroke-linecap:round;stroke-linejoin:round;stroke-miterlimit:10;" points="
	22.556,15.506 17.222,26.283 23,29.619 23,20.64 "/>
<polyline style="fill:none;stroke:currentColor;stroke-width:0.5;stroke-linecap:round;stroke-linejoin:round;stroke-miterlimit:10;" points="
	27.444,15.506 32.778,26.283 27,29.619 27,20.64 "/>
<line style="fill:none;stroke:currentColor;stroke-width:0.5;stroke-linecap:round;stroke-linejoin:round;stroke-miterlimit:10;" x1="27" y1="15.76" x2="27" y2="17.49"/>
<polyline style="fill:none;stroke:currentColor;stroke-width:0.5;stroke-linecap:round;stroke-linejoin:round;stroke-miterlimit:10;" points="
	29.18,21.9 30.778,25.128 27,27.309 "/>
<line style="fill:none;stroke:currentColor;stroke-width:0.5;stroke-linecap:round;stroke-linejoin:round;stroke-miterlimit:10;" x1="32.779" y1="26.282" x2="27" y2="22.947"/>
<line style="fill:none;stroke:currentColor;stroke-width:0.5;stroke-linecap:round;stroke-linejoin:round;stroke-miterlimit:10;" x1="28.56" y1="26.409" x2="27" y2="25.509"/>
<polyline style="fill:none;stroke:currentColor;stroke-width:0.5;stroke-linecap:round;stroke-linejoin:round;stroke-miterlimit:10;" points="
	20.82,21.9 19.222,25.128 23,27.309 "/>
<line style="fill:none;stroke:currentColor;stroke-width:0.5;stroke-linecap:round;stroke-linejoin:round;stroke-miterlimit:10;" x1="17.221" y1="26.282" x2="23" y2="22.947"/>
<line style="fill:none;stroke:currentColor;stroke-width:0.5;stroke-linecap:round;stroke-linejoin:round;stroke-miterlimit:10;" x1="21.44" y1="26.409" x2="23" y2="25.509"/>
<polyline style="fill:none;stroke:currentColor;stroke-width:0.5;stroke-linecap:round;stroke-linejoin:round;stroke-miterlimit:10;" points="
	28.33,31.16 33.667,28.079 36.333,33.468 27,38.856 27,36.55 "/>
<polyline style="fill:none;stroke:currentColor;stroke-width:0.5;stroke-linecap:round;stroke-linejoin:round;stroke-miterlimit:10;" points="
	32.33,33.47 34.334,32.313 32.559,28.719 "/>
<line style="fill:none;stroke:currentColor;stroke-width:0.5;stroke-linecap:round;stroke-linejoin:round;stroke-miterlimit:10;" x1="30.364" y1="30.02" x2="36.333" y2="33.468"/>
<polyline style="fill:none;stroke:currentColor;stroke-width:0.5;stroke-linecap:round;stroke-linejoin:round;stroke-miterlimit:10;" points="
	21.66,31.16 16.323,28.079 13.657,33.468 22.99,38.856 22.99,36.55 "/>
<polyline style="fill:none;stroke:currentColor;stroke-width:0.5;stroke-linecap:round;stroke-linejoin:round;stroke-miterlimit:10;" points="
	17.66,33.47 15.656,32.313 17.431,28.719 "/>
<line style="fill:none;stroke:currentColor;stroke-width:0.5;stroke-linecap:round;stroke-linejoin:round;stroke-miterlimit:10;" x1="19.626" y1="30.02" x2="13.657" y2="33.468"/>
<polyline style="fill:none;stroke:currentColor;stroke-width:0.5;stroke-linecap:round;stroke-linejoin:round;stroke-miterlimit:10;" points="
	36.11,35.91 37.222,35.264 39,38.86 "/>
<polyline style="fill:none;stroke:currentColor;stroke-width:0.5;stroke-linecap:round;stroke-linejoin:round;stroke-miterlimit:10;" points="
	13.89,35.91 12.778,35.264 11,38.86 "/>
<line style="fill:none;stroke:currentColor;stroke-width:0.5;stroke-linecap:round;stroke-linejoin:round;stroke-miterlimit:10;" x1="25" y1="11.144" x2="25" y2="46.94"/>
<path d="M11,3.06l2,1.16v2.3l2-1.15l2,1.15v8.09l-2,1.15l-2-1.15l-2,1.15l-2-1.15V4.22L11,3.06 M11,1.904l-0.502,0.291l-2,1.16
	L8,3.644V4.22v10.39v0.579l0.502,0.288l2,1.15L11,16.914l0.498-0.287L13,15.764l1.502,0.863L15,16.914l0.498-0.287l2-1.15L18,15.189
	V14.61V6.52V5.941l-0.502-0.288l-2-1.15L15,4.216l-0.498,0.287L14,4.791V4.22V3.644l-0.498-0.289l-2-1.16L11,1.904L11,1.904z"/>
<path d="M39,3.06l2,1.16v10.39l-2,1.15l-2-1.15l-2,1.15l-2-1.15V6.52l2-1.15l2,1.15v-2.3L39,3.06 M39,1.904l-0.502,0.291l-2,1.16
	L36,3.644V4.22v0.571l-0.502-0.288L35,4.216l-0.498,0.287l-2,1.15L32,5.941V6.52v8.09v0.579l0.502,0.288l2,1.15L35,16.914
	l0.498-0.287L37,15.764l1.502,0.863L39,16.914l0.498-0.287l2-1.15L42,15.189V14.61V4.22V3.644l-0.498-0.289l-2-1.16L39,1.904
	L39,1.904z"/>
<path d="M25,5.37l5,2.89v5.77l-0.56,0.32L41,37.7l-2,1.16l-2-1.16l-0.89-1.79L27,41.17v4.61l-2,1.16l-2-1.16v-4.61l-9.11-5.26
	L13,37.7l-2,1.16L9,37.7l11.56-23.35L20,14.03V8.26L25,5.37 M25,4.215l-0.5,0.289l-5,2.89L19,7.683V8.26v5.77v0.58l0.246,0.14
	L8.104,37.256l-0.415,0.839l0.81,0.47l2,1.16L11,40.016l0.502-0.291l2-1.16l0.26-0.151l0.134-0.269l0.416-0.837L22,41.747v4.033
	v0.576l0.498,0.289l2,1.16L25,48.096l0.502-0.291l2-1.16L28,46.356V45.78v-4.033l7.688-4.439l0.416,0.837l0.134,0.269l0.26,0.151
	l2,1.16L39,40.016l0.502-0.291l2-1.16l0.81-0.47l-0.415-0.839L30.754,14.751L31,14.61v-0.58V8.26V7.683l-0.5-0.289l-5-2.89L25,4.215
	L25,4.215z"/>
<path d="M27,17.49l2.18,4.41L27,20.64V17.49 M26,13.21v4.28v3.15v0.577l0.5,0.289l2.18,1.26l2.861,1.654l-1.465-2.963l-2.18-4.41
	L26,13.21L26,13.21z"/>
<path d="M28.33,31.16l4,2.31L27,36.55v-4.62L28.33,31.16 M28.329,30.005l-0.5,0.29l-1.33,0.77L26,31.353v0.577v4.62v1.733l1.5-0.867
	l5.33-3.08l1.499-0.866l-1.499-0.866l-4-2.31L28.329,30.005L28.329,30.005z"/>
<path d="M23,17.49v3.15l-2.18,1.26L23,17.49 M24,13.21l-1.896,3.836l-2.18,4.41l-1.465,2.963l2.861-1.654l2.18-1.26l0.5-0.289V20.64
	v-3.15V13.21L24,13.21z"/>
<path d="M21.66,31.16L23,31.93v4.62l-5.33-3.08L21.66,31.16 M21.658,30.006l-0.499,0.289l-3.99,2.31l-1.496,0.866l1.497,0.865
	l5.33,3.08l1.5,0.867V36.55v-4.62v-0.579l-0.502-0.288l-1.34-0.77L21.658,30.006L21.658,30.006z"/>
</svg>