<?xml version="1.0" encoding="iso-8859-1"?>
<!-- Generator: Adobe Illustrator 24.1.2, SVG Export Plug-In . SVG Version: 6.00 Build 0)  -->
<svg version="1.1" baseProfile="basic" id="Layer_1"
	 xmlns="http://www.w3.org/2000/svg" xmlns:xlink="http://www.w3.org/1999/xlink" x="0px" y="0px" viewBox="0 0 50 50"
	 xml:space="preserve">
<polygon style="fill:none;stroke:currentColor;stroke-width:0.5;stroke-linecap:round;stroke-linejoin:round;stroke-miterlimit:10;" points="
	42,16.343 42,37.127 39,38.857 37,37.707 31,41.172 31,43.482 28,45.212 25,43.482 25,41.172 13,34.242 11,35.392 8,33.662 
	8,12.878 22,4.793 "/>
<polyline style="fill:none;stroke:currentColor;stroke-width:0.5;stroke-linecap:round;stroke-linejoin:round;stroke-miterlimit:10;" points="
	8,12.878 28,24.423 42,16.343 "/>
<line style="fill:none;stroke:currentColor;stroke-width:0.5;stroke-linecap:round;stroke-linejoin:round;stroke-miterlimit:10;" x1="28" y1="24.423" x2="28" y2="45.212"/>
<polygon style="fill:none;stroke:currentColor;stroke-width:0.5;stroke-linecap:round;stroke-linejoin:round;stroke-miterlimit:10;" points="
	10,16.341 10,30.206 26,39.441 26,25.576 "/>
<polygon style="fill:none;stroke:currentColor;stroke-width:0.5;stroke-linecap:round;stroke-linejoin:round;stroke-miterlimit:10;" points="
	14,20.959 13,20.381 12,20.959 12,29.041 13,29.619 14,29.041 "/>
<polyline style="fill:none;stroke:currentColor;stroke-width:0.5;stroke-linecap:round;stroke-linejoin:round;stroke-miterlimit:10;" points="
	13,34.242 11,33.087 11,35.392 "/>
<polyline style="fill:none;stroke:currentColor;stroke-width:0.5;stroke-linecap:round;stroke-linejoin:round;stroke-miterlimit:10;" points="
	39,38.857 39,36.552 37,37.707 "/>
<polyline style="fill:none;stroke:currentColor;stroke-width:0.5;stroke-linecap:round;stroke-linejoin:round;stroke-miterlimit:10;" points="
	12,20.959 13,21.536 14,20.959 "/>
<line style="fill:none;stroke:currentColor;stroke-width:0.5;stroke-linecap:round;stroke-linejoin:round;stroke-miterlimit:10;" x1="13" y1="21.536" x2="13" y2="29.619"/>
<polygon style="fill:none;stroke:currentColor;stroke-width:0.5;stroke-linecap:round;stroke-linejoin:round;stroke-miterlimit:10;" points="
	19.502,24.135 17.502,25.286 16.002,27.884 17.502,32.214 21.502,34.507 23.502,33.356 25,30.774 23.502,26.444 "/>
<polyline style="fill:none;stroke:currentColor;stroke-width:0.5;stroke-linecap:round;stroke-linejoin:round;stroke-miterlimit:10;" points="
	17.502,25.286 21.502,27.595 23,31.924 21.502,34.507 "/>
<line style="fill:none;stroke:currentColor;stroke-width:0.5;stroke-linecap:round;stroke-linejoin:round;stroke-miterlimit:10;" x1="21.502" y1="27.595" x2="23.502" y2="26.444"/>
<line style="fill:none;stroke:currentColor;stroke-width:0.5;stroke-linecap:round;stroke-linejoin:round;stroke-miterlimit:10;" x1="23" y1="31.924" x2="25" y2="30.774"/>
<path d="M22,4.793l20,11.55v20.784l-3,1.73l-2-1.15l-6,3.465v2.31l-3,1.73l-3-1.73v-2.31l-12-6.93l-2,1.15l-3-1.73V12.878L22,4.793
	 M22,3.638l-0.5,0.289l-14,8.085L7,12.301v0.577v20.784v0.578l0.5,0.289l3,1.73l0.499,0.288l0.499-0.287l1.5-0.863L24,41.749v1.733
	v0.578l0.5,0.289l3,1.73l0.5,0.288l0.5-0.288l3-1.73L32,44.06v-0.578v-1.733l5.001-2.889l1.5,0.863l0.499,0.287l0.499-0.288l3-1.73
	l0.5-0.289v-0.578V16.343v-0.577l-0.5-0.289l-20-11.55L22,3.638L22,3.638z"/>
</svg>