<?xml version="1.0" encoding="iso-8859-1"?>
<!-- Generator: Adobe Illustrator 24.1.2, SVG Export Plug-In . SVG Version: 6.00 Build 0)  -->
<svg version="1.1" baseProfile="basic" id="Layer_1"
	 xmlns="http://www.w3.org/2000/svg" xmlns:xlink="http://www.w3.org/1999/xlink" x="0px" y="0px" viewBox="0 0 50 50"
	 xml:space="preserve">
<polygon style="fill:none;stroke:currentColor;stroke-width:0.5;stroke-linejoin:round;stroke-miterlimit:10;" points="41.18,43.37 
	34.63,47.21 29.16,37.61 27,38.86 17,33.08 10,20.96 10,9.41 21,3.06 31,8.83 38,20.96 38,32.51 35.73,33.81 "/>
<polygon style="fill:none;stroke:currentColor;stroke-width:0.5;stroke-linejoin:round;stroke-miterlimit:10;" points="18,9.412 
	13,12.298 13,21.536 18,30.196 26,34.815 31,31.928 31,22.691 26,14.03 "/>
<polyline style="fill:none;stroke:currentColor;stroke-width:0.5;stroke-linejoin:round;stroke-miterlimit:10;" points="17,5.37 
	27,11.144 34,23.268 34,34.815 29.16,37.61 "/>
<line style="fill:none;stroke:currentColor;stroke-width:0.5;stroke-linejoin:round;stroke-miterlimit:10;" x1="34" y1="34.815" x2="35.73" y2="33.81"/>
<line style="fill:none;stroke:currentColor;stroke-width:0.5;stroke-linejoin:round;stroke-miterlimit:10;" x1="31.735" y1="36.123" x2="37.18" y2="45.68"/>
<line style="fill:none;stroke:currentColor;stroke-width:0.5;stroke-linejoin:round;stroke-miterlimit:10;" x1="34" y1="23.268" x2="38" y2="20.96"/>
<line style="fill:none;stroke:currentColor;stroke-width:0.5;stroke-linejoin:round;stroke-miterlimit:10;" x1="27" y1="11.144" x2="31" y2="8.83"/>
<polyline style="fill:none;stroke:currentColor;stroke-width:0.5;stroke-linejoin:round;stroke-miterlimit:10;" points="17,9.989 
	17,19.226 22,27.887 30,32.506 "/>
<line style="fill:none;stroke:currentColor;stroke-width:0.5;stroke-linejoin:round;stroke-miterlimit:10;" x1="13" y1="21.536" x2="17" y2="19.226"/>
<line style="fill:none;stroke:currentColor;stroke-width:0.5;stroke-linejoin:round;stroke-miterlimit:10;" x1="18" y1="30.196" x2="22" y2="27.887"/>
<path d="M21,3.06l10,5.77l7,12.13v11.55l-2.27,1.3l5.45,9.56l-6.55,3.84l-5.47-9.6L27,38.86l-10-5.78l-7-12.12V9.41L21,3.06
	 M21,1.905l-0.5,0.289l-11,6.35L9,8.833V9.41v11.55v0.268l0.134,0.232l7,12.12l0.134,0.232l0.232,0.134l10,5.78L27,40.015
	l0.501-0.29l1.289-0.746l4.972,8.725l0.501,0.88l0.873-0.512l6.55-3.84l0.852-0.5l-0.489-0.858l-4.956-8.693l1.404-0.804L39,33.09
	v-0.58V20.96v-0.268l-0.134-0.232l-7-12.13l-0.134-0.232L31.5,7.964l-10-5.77L21,1.905L21,1.905z"/>
</svg>