<?xml version="1.0" encoding="iso-8859-1"?>
<!-- Generator: Adobe Illustrator 24.1.2, SVG Export Plug-In . SVG Version: 6.00 Build 0)  -->
<svg version="1.1" baseProfile="basic" id="Layer_1"
	 xmlns="http://www.w3.org/2000/svg" xmlns:xlink="http://www.w3.org/1999/xlink" x="0px" y="0px" viewBox="0 0 50 50"
	 xml:space="preserve">
<path style="fill:none;stroke:currentColor;stroke-width:0.5;stroke-linejoin:round;stroke-miterlimit:10;" d="M36,24.423V12.876l1-0.577
	l-1-6.351l-2-1.155l-2,1.155l-1,5.196l1,1.732v11.547l-4,2.309v2.309l1,0.577v13.856l5,2.887l5-2.887V29.619l1-0.577v-2.309
	L36,24.423z M22,8.257l-3,1.732l0,5.773l-1-0.577l-1-1.732V5.37l-2-1.155l-3,1.732l-2,9.238l4,6.928v20.785l1,1.732l3,1.732l4-2.309
	V23.268l4-2.309L24,9.412L22,8.257z"/>
<polyline style="fill:none;stroke:currentColor;stroke-width:0.5;stroke-linejoin:round;stroke-miterlimit:10;" points="12,5.947 
	14,7.102 14,15.185 15,16.917 18,18.649 19,18.072 19,15.762 "/>
<polyline style="fill:none;stroke:currentColor;stroke-width:0.5;stroke-linejoin:round;stroke-miterlimit:10;" points="19,9.989 
	21,11.144 23,22.691 "/>
<line style="fill:none;stroke:currentColor;stroke-width:0.5;stroke-linejoin:round;stroke-miterlimit:10;" x1="21" y1="11.144" x2="24" y2="9.412"/>
<line style="fill:none;stroke:currentColor;stroke-width:0.5;stroke-linejoin:round;stroke-miterlimit:10;" x1="14" y1="7.102" x2="17" y2="5.37"/>
<line style="fill:none;stroke:currentColor;stroke-width:0.5;stroke-linejoin:round;stroke-miterlimit:10;" x1="14" y1="15.185" x2="17" y2="13.453"/>
<line style="fill:none;stroke:currentColor;stroke-width:0.5;stroke-linejoin:round;stroke-miterlimit:10;" x1="15" y1="16.917" x2="18" y2="15.185"/>
<polyline style="fill:none;stroke:currentColor;stroke-width:0.5;stroke-linejoin:round;stroke-miterlimit:10;" points="22,23.268 19,25 
	19,45.785 "/>
<polyline style="fill:none;stroke:currentColor;stroke-width:0.5;stroke-linejoin:round;stroke-miterlimit:10;" points="32,5.947 
	34,7.102 36,5.947 "/>
<line style="fill:none;stroke:currentColor;stroke-width:0.5;stroke-linejoin:round;stroke-miterlimit:10;" x1="34" y1="7.102" x2="35" y2="13.453"/>
<polyline style="fill:none;stroke:currentColor;stroke-width:0.5;stroke-linejoin:round;stroke-miterlimit:10;" points="36,12.876 
	34,14.03 34,27.887 "/>
<polyline style="fill:none;stroke:currentColor;stroke-width:0.5;stroke-linejoin:round;stroke-miterlimit:10;" points="32,24.423 
	32,26.732 34,27.887 36,26.732 36,24.423 "/>
<polyline style="fill:none;stroke:currentColor;stroke-width:0.5;stroke-linejoin:round;stroke-miterlimit:10;" points="29,29.619 
	34,32.506 39,29.619 "/>
<polyline style="fill:none;stroke:currentColor;stroke-width:0.5;stroke-linejoin:round;stroke-miterlimit:10;" points="28,26.732 
	34,30.196 40,26.732 "/>
<line style="fill:none;stroke:currentColor;stroke-width:0.5;stroke-linejoin:round;stroke-miterlimit:10;" x1="34" y1="30.196" x2="34" y2="46.362"/>
<path d="M15,4.215l2,1.155v8.083l1,1.732l1,0.577l0-5.773l3-1.732l2,1.155l2,11.547l-4,2.309v20.785l-4,2.309l-3-1.732l-1-1.732
	V22.113l-4-6.928l2-9.238L15,4.215 M34,4.793l2,1.155l1,6.351l-1,0.577v11.547l4,2.309v2.309l-1,0.577v13.856l-5,2.887l-5-2.887
	V29.619l-1-0.577v-2.309l4-2.309V12.876l-1-1.732l1-5.196L34,4.793 M15,3.061l-0.5,0.289l-3,1.732l-0.384,0.221l-0.094,0.433
	l-2,9.238l-0.082,0.377l0.193,0.334L13,22.381v20.517v0.268l0.134,0.232l1,1.732l0.134,0.232l0.232,0.134l3,1.732l0.5,0.289
	l0.5-0.289l4-2.309L23,44.63v-0.577V23.845l3.5-2.021l0.604-0.349l-0.119-0.688l-2-11.547l-0.08-0.461L24.5,8.546l-2-1.155L22,7.102
	l-0.5,0.289l-3,1.732L18,9.412l0,0.577l0,3.196l0,0V5.37V4.793l-0.5-0.289l-2-1.155L15,3.061L15,3.061z M34,3.638l-0.5,0.289
	l-2,1.155L31.104,5.31l-0.086,0.449l-1,5.196l-0.07,0.366l0.186,0.323l0.866,1.5v10.702l-3.5,2.021L27,26.155v0.577v2.309v0.577
	l0.5,0.289l0.5,0.289v13.279v0.577l0.5,0.289l5,2.887l0.5,0.289l0.5-0.289l5-2.887l0.5-0.289v-0.577V30.196l0.5-0.289l0.5-0.289
	v-0.577v-2.309v-0.577l-0.5-0.289L37,23.845V13.453l0.5-0.289l0.595-0.343l-0.107-0.678l-1-6.351L36.914,5.32L36.5,5.081l-2-1.155
	L34,3.638L34,3.638z"/>
</svg>